{
    "asset" : {
        "generator" : "Khronos glTF Blender I/O v3.3.32",
        "version" : "2.0"
    },
    "scene" : 0,
    "scenes" : [
        {
            "name" : "Scene",
            "nodes" : [
                0,
                1
            ]
        }
    ],
    "nodes" : [
        {
            "mesh" : 0,
            "name" : "Mesh_0",
            "rotation" : [
                0.010937696322798729,
                0.49439486861228943,
                0.0035645277239382267,
                0.8691613674163818
            ],
            "translation" : [
                0,
                -0.00793745368719101,
                0
            ]
        },
        {
            "mesh" : 1,
            "name" : "Plane",
            "scale" : [
                0.22060012817382812,
                0.22060012817382812,
                0.22060012817382812
            ]
        }
    ],
    "materials" : [
        {
            "name" : "Material_0",
            "normalTexture" : {
                "index" : 0
            },
            "occlusionTexture" : {
                "index" : 1
            },
            "pbrMetallicRoughness" : {
                "baseColorTexture" : {
                    "index" : 2
                },
                "metallicFactor" : 0
            }
        }
    ],
    "meshes" : [
        {
            "name" : "Mesh_0",
            "primitives" : [
                {
                    "attributes" : {
                        "POSITION" : 0,
                        "NORMAL" : 1,
                        "TEXCOORD_0" : 2,
                        "COLOR_0" : 3
                    },
                    "indices" : 4,
                    "material" : 0
                }
            ]
        },
        {
            "name" : "Plane",
            "primitives" : [
                {
                    "attributes" : {
                        "POSITION" : 5,
                        "NORMAL" : 6,
                        "TEXCOORD_0" : 7
                    },
                    "indices" : 8
                }
            ]
        }
    ],
    "textures" : [
        {
            "sampler" : 0,
            "source" : 0
        },
        {
            "sampler" : 0,
            "source" : 1
        },
        {
            "sampler" : 0,
            "source" : 2
        }
    ],
    "images" : [
        {
            "mimeType" : "image/jpeg",
            "name" : "49e375f94faaa43fa9a5459f3cd4f6b0",
            "uri" : "49e375f94faaa43fa9a5459f3cd4f6b0.jpg"
        },
        {
            "mimeType" : "image/jpeg",
            "name" : "595ceca0e90b7baf3a4eadd0994da510",
            "uri" : "595ceca0e90b7baf3a4eadd0994da510.jpg"
        },
        {
            "mimeType" : "image/jpeg",
            "name" : "33932a6d45479c329af72eec4b869372",
            "uri" : "33932a6d45479c329af72eec4b869372.jpg"
        }
    ],
    "accessors" : [
        {
            "bufferView" : 0,
            "componentType" : 5126,
            "count" : 135720,
            "max" : [
                0.1336887925863266,
                0.10878975689411163,
                0.1234828308224678
            ],
            "min" : [
                -0.13899338245391846,
                0.008664503693580627,
                -0.08087387681007385
            ],
            "type" : "VEC3"
        },
        {
            "bufferView" : 1,
            "componentType" : 5126,
            "count" : 135720,
            "type" : "VEC3"
        },
        {
            "bufferView" : 2,
            "componentType" : 5126,
            "count" : 135720,
            "type" : "VEC2"
        },
        {
            "bufferView" : 3,
            "componentType" : 5126,
            "count" : 135720,
            "normalized" : false,
            "type" : "VEC4"
        },
        {
            "bufferView" : 4,
            "componentType" : 5125,
            "count" : 135720,
            "type" : "SCALAR"
        },
        {
            "bufferView" : 5,
            "componentType" : 5126,
            "count" : 24,
            "max" : [
                1,
                0.029681069776415825,
                1
            ],
            "min" : [
                -1,
                0,
                -1
            ],
            "type" : "VEC3"
        },
        {
            "bufferView" : 6,
            "componentType" : 5126,
            "count" : 24,
            "type" : "VEC3"
        },
        {
            "bufferView" : 7,
            "componentType" : 5126,
            "count" : 24,
            "type" : "VEC2"
        },
        {
            "bufferView" : 8,
            "componentType" : 5123,
            "count" : 36,
            "type" : "SCALAR"
        }
    ],
    "bufferViews" : [
        {
            "buffer" : 0,
            "byteLength" : 1628640,
            "byteOffset" : 0,
            "target" : 34962
        },
        {
            "buffer" : 0,
            "byteLength" : 1628640,
            "byteOffset" : 1628640,
            "target" : 34962
        },
        {
            "buffer" : 0,
            "byteLength" : 1085760,
            "byteOffset" : 3257280,
            "target" : 34962
        },
        {
            "buffer" : 0,
            "byteLength" : 2171520,
            "byteOffset" : 4343040,
            "target" : 34962
        },
        {
            "buffer" : 0,
            "byteLength" : 542880,
            "byteOffset" : 6514560,
            "target" : 34963
        },
        {
            "buffer" : 0,
            "byteLength" : 288,
            "byteOffset" : 7057440,
            "target" : 34962
        },
        {
            "buffer" : 0,
            "byteLength" : 288,
            "byteOffset" : 7057728,
            "target" : 34962
        },
        {
            "buffer" : 0,
            "byteLength" : 192,
            "byteOffset" : 7058016,
            "target" : 34962
        },
        {
            "buffer" : 0,
            "byteLength" : 72,
            "byteOffset" : 7058208,
            "target" : 34963
        }
    ],
    "samplers" : [
        {
            "magFilter" : 9729,
            "minFilter" : 9987
        }
    ],
    "buffers" : [
        {
            "byteLength" : 7058280,
            "uri" : "fix up.bin"
        }
    ]
}
